<svg xmlns="http://www.w3.org/2000/svg" width="946.5" height="279.167" viewBox="0 0 946.5 279.167">
  <g id="logo" transform="translate(21 9.667)">
    <path id="Trazado_13" data-name="Trazado 13" d="M472,607" transform="translate(-472 -337.5)"/>
    <path id="Trazado_5" data-name="Trazado 5" d="M671.738,355.07h9.7L577.674,591.6h-8.841Z" transform="translate(-471.933 -364.737)" fill="#fff"/>
    <path id="Trazado_6" data-name="Trazado 6" d="M745.63,478.486q-4.1-1.068-8.15-2.077c-2.7-.682-5.45-1.306-8.25-1.889q-5,10.049-10.55,19.7t-11.82,19.03a144.554,144.554,0,0,1-10.69,14.006,151.827,151.827,0,0,1-12.5,12.858A146.375,146.375,0,0,1,670,551.293a116.628,116.628,0,0,1-14.26,8.793,77.831,77.831,0,0,1-14.26,5.747,49.974,49.974,0,0,1-13.72,2.028,36.853,36.853,0,0,1-12-2.077,32.91,32.91,0,0,1-10.89-6.231,31.86,31.86,0,0,1-7.86-10.385,33.1,33.1,0,0,1-3-14.629,44.472,44.472,0,0,1,1-9.179,47.676,47.676,0,0,1,3.37-9.95,69.382,69.382,0,0,1,6-10.484,91.208,91.208,0,0,1,9.08-10.959,80.064,80.064,0,0,1,16-12.858,100.034,100.034,0,0,1,18.8-8.9,115.215,115.215,0,0,1,20.8-5.212,142.321,142.321,0,0,1,22-1.691q7.34,0,14.6.673t14.6,1.929q5.18-10.623,9.38-21.147t7.32-20.771a248.971,248.971,0,0,0,6.74-27.141,115.236,115.236,0,0,0,2.05-19.9,56.4,56.4,0,0,0-1.17-12.314,37.58,37.58,0,0,0-3-8.793,21.216,21.216,0,0,0-4.29-5.885,20.66,20.66,0,0,0-4.94-3.482,18.931,18.931,0,0,0-4.88-1.642,24.309,24.309,0,0,0-4.25-.435,26.735,26.735,0,0,0-14,3.67,31.5,31.5,0,0,0-10.4,10.336,52.386,52.386,0,0,0-6.5,16.083,90.674,90.674,0,0,0-2.25,20.9A82.959,82.959,0,0,0,691.63,414a92.3,92.3,0,0,0,3.91,13.907,74.014,74.014,0,0,0,5.12,11.107,92.089,92.089,0,0,0,5.18,8.12q2.38,3.274,3.95,5.025a15.9,15.9,0,0,0,1.66,1.731l-3,3.1a99.568,99.568,0,0,1-11.72-11.79,79.8,79.8,0,0,1-9.47-13.907,76.765,76.765,0,0,1-6.35-15.825,64.614,64.614,0,0,1-2.35-17.527,71.528,71.528,0,0,1,3-20.573,61.213,61.213,0,0,1,8.79-18.209,45.618,45.618,0,0,1,14.16-12.987,37.126,37.126,0,0,1,19.14-4.945,39.527,39.527,0,0,1,5.67.475,26.587,26.587,0,0,1,6.64,1.978,30.471,30.471,0,0,1,6.78,4.194,25.323,25.323,0,0,1,6,7.2,42.963,42.963,0,0,1,4.2,11.009,66.008,66.008,0,0,1,1.61,15.6q0,4.154-.39,8.842T753,400.654a235.021,235.021,0,0,1-8.21,35.311,272.9,272.9,0,0,1-13.37,34.143c2.73.584,5.4,1.187,8,1.83s5.18,1.325,7.72,2.038Zm-118,84.32a35.522,35.522,0,0,0,15.23-2.8,70.386,70.386,0,0,0,15.92-9.228,125.285,125.285,0,0,0,16-14.54A217.044,217.044,0,0,0,690.31,517.6q7.58-10.148,14.55-21.542t13-23.372c-3.32-.455-6.63-.811-9.91-1.068s-6.66-.386-10.11-.386a111.089,111.089,0,0,0-28.17,3.383,109.543,109.543,0,0,0-23.54,8.981,93.708,93.708,0,0,0-18.7,12.858,90.484,90.484,0,0,0-13.57,14.925,66.534,66.534,0,0,0-8.31,15.262,40.167,40.167,0,0,0-2.83,13.847,23.269,23.269,0,0,0,1.71,9.031,20.054,20.054,0,0,0,4.88,7.052,22.283,22.283,0,0,0,7.82,4.589,31.242,31.242,0,0,0,10.54,1.672Z" transform="translate(-450 -341)" fill="red"/>
    <path id="Trazado_7" data-name="Trazado 7" d="M803,474.36q-4.5,5.28-8.89,9.72a73.069,73.069,0,0,1-8.74,7.62,43.723,43.723,0,0,1-8.64,5,22.331,22.331,0,0,1-8.69,1.8,16.3,16.3,0,0,1-6.69-1.32,15.27,15.27,0,0,1-5.18-3.71,16.141,16.141,0,0,1-3.37-5.86,24.141,24.141,0,0,1-1.17-7.76,35.821,35.821,0,0,1,3-13.87,80,80,0,0,1,7.52-13.86,111.241,111.241,0,0,1,10.06-12.8q5.52-6,10.5-10.74l4.19,2.93q-3.51,5.17-7.86,11.72t-8.2,13.52a106.472,106.472,0,0,0-6.49,14,36.783,36.783,0,0,0-2.64,12.94,14.271,14.271,0,0,0,1.51,6.83q1.51,2.83,5.81,2.84,4.69,0,10.31-3.71a74.43,74.43,0,0,0,11.52-9.67,159.833,159.833,0,0,0,11.82-13.43q5.89-7.47,11.18-15.09t9.62-14.55q4.33-6.93,7.08-11.82l7.13,3.52q-5.67,11.13-10.89,20.75t-9.28,17.29q-4.05,7.66-6.45,13.33-2.385,5.655-2.39,9a4,4,0,0,0,.59,2.25,2.08,2.08,0,0,0,1.85.88c2.41.06,5.07-1,8-3.13a62,62,0,0,0,8.79-8.1,128.813,128.813,0,0,0,8.69-10.7q4.25-5.81,7.67-10.89l3.51,2.74c-.39.65-1.2,2-2.44,4s-2.76,4.33-4.59,6.94-3.9,5.34-6.25,8.2A75.2,75.2,0,0,1,827,489a41.77,41.77,0,0,1-8.1,5.86,17.23,17.23,0,0,1-8.3,2.3,11.331,11.331,0,0,1-4.55-.88,10.1,10.1,0,0,1-3.36-2.35,10.559,10.559,0,0,1-2.15-3.42,10.912,10.912,0,0,1-.78-4.1,20.892,20.892,0,0,1,.83-5.56,42.715,42.715,0,0,1,2.41-6.49Z" transform="translate(-457.229 -334.134)" fill="red"/>
    <path id="Trazado_8" data-name="Trazado 8" d="M921.81,430.71c-.85,1.69-2,3.91-3.57,6.64s-3.17,5.75-4.93,9-3.53,6.73-5.32,10.31-3.42,7.08-4.89,10.49a101.125,101.125,0,0,0-3.61,9.67,26.713,26.713,0,0,0-1.41,7.67c0,2.08.4,3.43,1.22,4.05a5.08,5.08,0,0,0,3.17.93,11.87,11.87,0,0,0,5.81-1.66,31.212,31.212,0,0,0,5.86-4.3,57.582,57.582,0,0,0,5.61-6q2.75-3.31,5.13-6.69c1.6-2.24,3-4.39,4.35-6.44l3.32-5.23,3.51,2.74c-1.1,2.08-2.41,4.33-3.9,6.74s-3.14,4.83-4.93,7.27a87.982,87.982,0,0,1-5.81,7.08,50.41,50.41,0,0,1-6.6,6.06,32,32,0,0,1-7.27,4.2,20.46,20.46,0,0,1-7.81,1.56q-5.87,0-8.6-3.52a14.37,14.37,0,0,1-2.73-9.08c0-.26,0-.83.05-1.71a10.489,10.489,0,0,1,.24-2.1,83.909,83.909,0,0,1-9.33,10.16,49.285,49.285,0,0,1-8.59,6.35,30.77,30.77,0,0,1-15.38,4.2,19.851,19.851,0,0,1-7-1.22,17.12,17.12,0,0,1-5.76-3.57,16.33,16.33,0,0,1-3.91-5.76,20.64,20.64,0,0,1-1.42-7.91A39.568,39.568,0,0,1,839.82,468a56.892,56.892,0,0,1,8.84-15.47,72.9,72.9,0,0,1,11.18-12,66.555,66.555,0,0,1,11.43-7.86,47.621,47.621,0,0,1,10.73-4.3,37.723,37.723,0,0,1,9-1.27q9,0,13.58,3a12.65,12.65,0,0,1,5.56,9.14c1.31-1.63,2.67-3.26,4.11-4.89l4.39-5Zm-30,37.11q1.26-2.06,3.12-5.23t3.91-6.54c1.36-2.25,2.7-4.41,4-6.49s2.44-3.84,3.42-5.28a24.469,24.469,0,0,0-.25-2.83,11.339,11.339,0,0,0-1.31-3.95,9.43,9.43,0,0,0-3.4-3.5,12.321,12.321,0,0,0-6.55-1.47,28.5,28.5,0,0,0-6.78.93,36.53,36.53,0,0,0-8,3.13,52.272,52.272,0,0,0-8.74,5.81,64.448,64.448,0,0,0-9,9,71.719,71.719,0,0,0-10.41,16.26q-3.66,8.16-3.66,14.7c0,3.71.85,6.58,2.54,8.59a8.9,8.9,0,0,0,7.23,3A21.9,21.9,0,0,0,868,491.6a39.239,39.239,0,0,0,8.79-6.2,79.326,79.326,0,0,0,7.81-8.4q3.71-4.68,7.23-9.18Z" transform="translate(-456.573 -336.151)" fill="red"/>
    <path id="Trazado_9" data-name="Trazado 9" d="M1014.09,445a26.755,26.755,0,0,1-1.46,8.54,63,63,0,0,1-3.71,8.69q-2.25,4.35-4.79,8.55t-4.79,8.1a66.211,66.211,0,0,0-3.71,7.47,17.431,17.431,0,0,0-1.46,6.5c0,1.5.32,2.51,1,3a3.34,3.34,0,0,0,2.14.78c2.48,0,5.24-1.22,8.3-3.67a68.788,68.788,0,0,0,9.33-9.22q4.74-5.57,9.42-12.11t8.5-12.41l3.52,2.74c-.53.78-1.47,2.33-2.84,4.64s-3.06,4.95-5.07,7.91-4.28,6.05-6.79,9.28a77.935,77.935,0,0,1-8.06,8.88,48.2,48.2,0,0,1-8.84,6.69,18,18,0,0,1-9.13,2.64,12.449,12.449,0,0,1-4.78-.88,10.731,10.731,0,0,1-3.66-2.44,11.741,11.741,0,0,1-2.4-3.66,11.54,11.54,0,0,1-.87-4.45,23,23,0,0,1,1.7-8.25,78.428,78.428,0,0,1,4.25-9.13q2.53-4.69,5.57-9.42t5.56-9a85.593,85.593,0,0,0,4.25-8,15.4,15.4,0,0,0,1.71-6.3,8,8,0,0,0-1.61-5.07,5.43,5.43,0,0,0-4.54-2q-3.12,0-7.23,2.58a58.106,58.106,0,0,0-9.18,7.57,160.153,160.153,0,0,0-11.08,12.26q-6,7.28-13,16.55-4,5.37-7.81,10.35c-1.11,1.43-2.21,2.9-3.32,4.4s-2.21,3-3.32,4.44-2.15,2.87-3.13,4.2-1.85,2.49-2.63,3.47l-8.6-3.52,11.43-15.72q2.45-3.33,5-7.13t5-7.86q2.49-4.05,4.74-8.16t4.19-8a61.709,61.709,0,0,0,3.91-9.72,24.3,24.3,0,0,0,1.08-6.2c0-1.76-.33-2.92-1-3.47a4.11,4.11,0,0,0-2.74-.83,7.24,7.24,0,0,0-4.24,1.9,36.435,36.435,0,0,0-4.94,4.89,80.424,80.424,0,0,0-5.12,6.74q-2.59,3.75-4.93,7.47c-1.57,2.47-3,4.82-4.4,7s-2.51,4-3.42,5.37l-3.51-2.74q5-7.8,9-14.3a116.856,116.856,0,0,1,7.81-11.18,39.381,39.381,0,0,1,7.33-7.28,12.69,12.69,0,0,1,7.57-2.59,10.35,10.35,0,0,1,4.15.88,10.14,10.14,0,0,1,3.51,2.59,12.492,12.492,0,0,1,2.39,4.15,16.61,16.61,0,0,1,.88,5.66,25.172,25.172,0,0,1-.58,5.28,77.084,77.084,0,0,1,8-6.94,51.338,51.338,0,0,1,6.83-4.34,28.25,28.25,0,0,1,5.76-2.3,19.548,19.548,0,0,1,4.79-.68,16.5,16.5,0,0,1,4.3.68,12.19,12.19,0,0,1,4.59,2.54,15,15,0,0,1,3.66,5.13,20.23,20.23,0,0,1,1.52,8.46Z" transform="translate(-457.443 -335.146)" fill="red"/>
    <path id="Trazado_10" data-name="Trazado 10" d="M1148.66,456.88l-.58,1.36a7.172,7.172,0,0,0-.58,2.22l-.19,1.55-3.58,5.12-1,2-2.42,1.16a9.079,9.079,0,0,0-2.61,2.32,21.939,21.939,0,0,0-7.25,3.19h-1.84l-1.74.39-.77,1.64H1123l-.39.77-1.26-.19c-.19,0-.61.37-1.25,1.11a3.24,3.24,0,0,1-2.23,1.21,3.42,3.42,0,0,0-1.64-.58,10,10,0,0,0-4.16,1.45l-3.58-.87-2.32,1.65a2.9,2.9,0,0,0-1.25-.2,11.591,11.591,0,0,0-2.71.58,11.449,11.449,0,0,1-3.19.58h-1.35a16,16,0,0,0-3.87.87,16.721,16.721,0,0,1-4.83.87,9.8,9.8,0,0,1-2.81-.38l-3,.87-3.19-1.26L1078,485.6l-1.16-.49-1.45,2.81-1.74-1.55-2.42,1.16-.77-1.35a10.459,10.459,0,0,1-3.38.58l-.58,4-2.32,3-.78,2a31.111,31.111,0,0,1-3.19,4.83l-.68-.58h-1l.38-3.38-.19-4.93-2.9-1.94a3,3,0,0,0-2-1.06l-4,2h-3l-1.55-1.16-.38-1.64,1.74-1.74.19-1.45,7-1.74a4.5,4.5,0,0,1,2-.39c.77,0,1.16-.19,1.16-.58v-.19l-1.16-4a2.39,2.39,0,0,1-.19-1.06,4.788,4.788,0,0,1,.38-1.65,7.459,7.459,0,0,0,.39-1.06l-.58-9.57,1-2.32v-4.54l1.35-3.2-2.32-4.35,2.32-5.12L1057,431.46l.58-4.55v-4.16l-1.74-4.54v-7.06l-2.22-3.57v-2l-5.32-.58-4.16,1.75-6.38.48a6.131,6.131,0,0,1-1.11-2.9q-.24-1.74-1-5,3-2.22,5.13-2.22l1.55.19c.32,0,.8-.39,1.45-1.16a27.08,27.08,0,0,1,6.86-.77,8.119,8.119,0,0,0,4.74,1.74,9.371,9.371,0,0,0,2.22-.39c.39.77.77,1.16,1.16,1.16a21.576,21.576,0,0,0,3.38-1.16l2.42,1.16,2.9-.77,6,1.35,3.38,2.22,4.35-.77,1.35,2.51,2.42.68,3.48,2.13,2.23.38,2.8,1.36,1.55-.19a5.641,5.641,0,0,1,3.77,1.64c2.44.06,5.35,2,8.7,5.9h1.83a12.5,12.5,0,0,0,6.29,3.19l4.54,3.57,5.13,4.74a4.681,4.681,0,0,0,2.41,1.16,4.619,4.619,0,0,0,1.55-1l.87.58.58,3.19a65.923,65.923,0,0,1,7.74,7.69c1.8,2.23,2.81,3.82,3,4.79s1.11,1.9,2.66,2.8v2.51a5.25,5.25,0,0,0,1.74,3.77,4.751,4.751,0,0,0,1.4,3.39c.93,1,1.4,1.64,1.4,2Zm-7.34,1.16-.58-5.51-7.93-10.73h-1.36l-2.22-5.32-2.32-.19-2.61-2-.77-2.8q-1.85-1.75-7.35-3.49l-1.55-2.8L1099,415.7l-2.8.19a7.45,7.45,0,0,1-3.58-1.26,3,3,0,0,0-2.32-1.35,3.05,3.05,0,0,0-1.35.39l-1.07-2.32-2.9.19a6.939,6.939,0,0,0-2.32-.58,8.861,8.861,0,0,1-3.48-1.26l-.77.39q0-1.35-1.74-1.35-4.07-3.19-10.93-3.2a3.091,3.091,0,0,0-1.35.39l.58,2.23-1,3a2.37,2.37,0,0,0-.48,1.55,4.27,4.27,0,0,0,1.84,3.19l-2,3.29a18.745,18.745,0,0,0,1.07,2.56,8.709,8.709,0,0,1,1,3.43,10.783,10.783,0,0,1-.29,1.69,9.777,9.777,0,0,0-.29,1.69,13.552,13.552,0,0,0,1,2.91l-1.35.48.58,4.16v7.63l.77,1.26-2.22,3.58,1.45,1.35-1.84,4.93.87,4.55-2,4.54,2,3.77-.48,4,.87,2.23-1.26,2.9,1.84,4.83,12.28-1.45a3.9,3.9,0,0,0,1.06-.48,3.449,3.449,0,0,1,1.64-.49,20.69,20.69,0,0,1,3.48.49,20.924,20.924,0,0,0,3.87.48,16,16,0,0,0,9.28-3.19c1.36-.13,3-.19,4.84-.19l4.73.19a6.23,6.23,0,0,0,4.16-1.55,9.33,9.33,0,0,0,3.87-1.25,6.851,6.851,0,0,1,2.42-1.07,2.49,2.49,0,0,1,1.83.78,4.32,4.32,0,0,0,3.19-1.26l3.48-.39.39-1.93,1.45.58,2.13-1h1.45l1.74-2.22h1.35l7.54-5.7Z" transform="translate(-447.761 -335.905)" fill="#1e00ff"/>
    <path id="Trazado_11" data-name="Trazado 11" d="M1199.92,477.86a7.2,7.2,0,0,1,1.45,3.29c0,.52-.59,1.61-1.79,3.29a20.64,20.64,0,0,0-2.75,5.31l-1.45.2-2.13,4.15-2.42.39-5.31,3.58-1,2.12-1.64-.19-1.74,2h-2.81l-.58,1-1.35-.2a4.85,4.85,0,0,0-3.77,1.94l-1.26-1a8.1,8.1,0,0,1-3.28,1,6,6,0,0,1-3.58-1,13.94,13.94,0,0,1-2.61.19l-1.16-1c-3.55-.2-5.93-1.2-7.16-3v-2.42l-3.19-1.74-.77-2a8.078,8.078,0,0,0-2.13-2.51v-1.55l-2.22-9.37.39-6.68.77-3.77v-4.15l1.06-3.58-.38-2.61a3.85,3.85,0,0,0,1.35-2.18,12.009,12.009,0,0,1,1.16-3c-.26-1.16-.52-2.8-.77-4.93l1.74-1.45-1.74-1.93a8.679,8.679,0,0,0,1.35-2.8l-1-5.9a15.365,15.365,0,0,1,.58-4.16,3.24,3.24,0,0,0,2.61,1.74,21.057,21.057,0,0,0,3.77-.77,4.269,4.269,0,0,1-.19-1.35,3,3,0,0,1,1.55-2.42,36.907,36.907,0,0,1,4.35-9.09,4.79,4.79,0,0,0,1.83-4h1l1-1.94,1.16-.48a7.689,7.689,0,0,1,2-2.9c1.48-.45,3.25-2,5.32-4.54a4.34,4.34,0,0,0,1.64.19c.19,0,.71-.74,1.55-2.23,2.25-.77,3.44-1.16,3.57-1.16a2.35,2.35,0,0,1,1.74,1.16l1.84-.38,1,.77h1.16q1.07,3.19,4,3.19h.58a3.16,3.16,0,0,0,1.26,2l-.87.39c2.25,1.1,3.38,3.64,3.38,7.64l-.58,2.22.58,5.51-1,.87-2.23,5.9-4,4.93-.2,2.8a59.818,59.818,0,0,1-11.6,7.93c-.26.77-.67,1.16-1.25,1.16a6.241,6.241,0,0,1-1.55-.39l-4.35,3h-2.61l-3.77,1.74-1.65-1a15.64,15.64,0,0,0-4.06-.77,9.47,9.47,0,0,0-3,7.25l-1.36,1.65a22.245,22.245,0,0,1-1,5.12l-1.07.58,1.07,7.15-1.07,1,.2,2.22-.2,2.71a33.727,33.727,0,0,0,.49,3.68c.32,2,.83,3.15,1.54,3.48-.32.9.31,2,1.89,3.28a14.063,14.063,0,0,0,5.07,2.71v1.16l5.13.77,7.35.39,4.93-.58a21.135,21.135,0,0,1,4.35-2.61l1.54-2.32h1.84l.19-1q4.26-1.44,4.69-2a1.63,1.63,0,0,0,.44-1,1.84,1.84,0,0,1,1.74-1.16l.58-1.26q4.35-.68,5.41-5.71A3.64,3.64,0,0,1,1199.92,477.86Zm-16.24-45.15c.52-.06,1.39-.87,2.61-2.42l.58-2.32a39.939,39.939,0,0,0,2.8-5.17,8.391,8.391,0,0,0,.39-2.75,22.581,22.581,0,0,0-1.35-5.8l-4-1.36a10.761,10.761,0,0,1-2,.39l-1.16-.39c-1,0-1.64.58-2,1.74a16.189,16.189,0,0,0-5.31,1.45l-.58,1.36a1.741,1.741,0,0,0-.78-.2,1.509,1.509,0,0,0-.53.1,1.259,1.259,0,0,0-.43.29c-.13.13-.26.28-.39.43a2.665,2.665,0,0,0-.34.63c-.1.26-.19.53-.29.83s-.19.58-.29.86a7.284,7.284,0,0,1-1.21,1.7l-1.45,1.74-2.8,5.31-1.45,1.26a4.65,4.65,0,0,0-1.07,2.52q-.37,1.93-5.22,9.28l1.36.77.67,1.64,3.29,1a16.492,16.492,0,0,1,6-2.61l.58-1.16a5.108,5.108,0,0,0,1.54.39,2.39,2.39,0,0,0,1.84-1.16l2.32-.39,1.45-2.42h1.35l1-2.12a6.83,6.83,0,0,0,4.93-2.42Z" transform="translate(-445.018 -336.009)" fill="#1e00ff"/>
    <path id="Trazado_12" data-name="Trazado 12" d="M1281.93,401l-1,2,.19,2.9-2,1.26-1,4.06a7.2,7.2,0,0,1-1.84,2.61l-.39,2.61h-2.12a17.527,17.527,0,0,1,1,3.58c0,1-1.06,1.8-3.19,2.32v1.45l-1.74,6.67-1.64,3.19H1267a3.43,3.43,0,0,1,1.16,2.42l-2.52,2.51-4.54,11.89-4.16,7.16v3.19c0,.45-.47,1.09-1.4,1.93s-1.4,1.51-1.4,2,.32.9,1,1.55a6.651,6.651,0,0,1-4.35,1.35l.77,2.22a12.4,12.4,0,0,0-2.13,4.16c-1.35,1-2,1.93-2,2.71a2.9,2.9,0,0,0,.2,1.25h-1.55v2.13l-2.61,1.65-1.36,2.51-4,4.35-5.12,7.93a5,5,0,0,1-4.35,2.22c-2.65,0-4.48-.87-5.51-2.61l-6.39-10.05-.38-3.58-1.16-.77-.2-4.55-2.22-2.42v-4.54l-4.74-12.08.2-2.42-1.26-2.23a14.664,14.664,0,0,1-.77-4.06l-1.36-1.83-1-2.61a5.75,5.75,0,0,0-1.45-2.32l-2.32-2.13-1.74-7-2-1.74a8.672,8.672,0,0,1-1.84-2.32l-1.74-3.29a3,3,0,0,1-1.16.39c-1.36,0-2-1.71-2-5.13q0-3.37,4-4.73c2.32,1.93,4,3.37,5,4.3a22.888,22.888,0,0,1,3.77,5.9c1.51,3,2.92,4.62,4.21,4.88a1,1,0,0,0-.87,1,2.749,2.749,0,0,0,.58,1.35v1.64l2.41,1.94-.58,1.74.58,4,2.23,6.38.58.58.38,2.61,1,.58v1.94l2.42,8.7.58,3.38,3.19,7.15,2.51,9.29,2,1.64v.39q0,2.7,4.16,2.7h.77v-1c0-.2.44-.44,1.31-.73s1.69-1.24,2.46-2.85a3.42,3.42,0,0,0,1,.39c.39,0,.58-.26.58-.78a6.3,6.3,0,0,0-.39-1.54l4.55-2.62a8.535,8.535,0,0,1,.48-2.32,4.931,4.931,0,0,1,1.16-1.83l1.74-1.55,3.58-5.12,1.16-3.58,2-1.45.77-2.13a7.67,7.67,0,0,1,1.94-2.41l-.2-2.13,1-.39.68-2,.77.78a6.342,6.342,0,0,1-.39-1.55,1.41,1.41,0,0,1,1.36-1.55,1.88,1.88,0,0,1,1.74-1.45,12,12,0,0,0,1.45-5.51h1.54l.2-2.61a19.633,19.633,0,0,0,1.83-5.51l1.16-.19,2.81-8.13.58-.77-.2,1.16a7.771,7.771,0,0,0,1.79-3.33c.29-1.2.53-1.79.73-1.79a2,2,0,0,1,.87.38l2.51-9.08,1.84-2.42v-1.16l1.35.39-.38-3.19a13.911,13.911,0,0,0,3.72-5.47c.74-2,1.46-3,2.17-3a2.869,2.869,0,0,1,1.07.19l.19-1.16Z" transform="translate(-438.5 -335.937)" fill="#1e00ff"/>
    <path id="Trazado_14" data-name="Trazado 14" d="M0,104.64,103.41,0H117.9L13.53,104.64,113.07,218H98.57" transform="translate(-21)" fill="#fff"/>
    <path id="Trazado_15" data-name="Trazado 15" d="M892,113.36,788.59,218H774.1L878.47,113.36,778.93,0h14.5" transform="translate(33.5)" fill="#fff"/>
  </g>
</svg>
